<svg xmlns="http://www.w3.org/2000/svg" width="408" height="464" viewBox="0 0 408 464">
<g>
<path d="M 203.50 457.40 C177.36,455.37 158.27,452.84 131.00,447.78 C115.78,444.96 112.63,444.71 90.50,444.56 C64.07,444.39 58.73,443.53 44.62,437.13 C35.61,433.04 26.02,423.81 21.72,415.09 L 18.50 408.55 L 17.87 385.02 C17.53,372.09 16.76,360.00 16.17,358.18 C13.75,350.70 11.74,327.70 12.40,315.00 C14.10,282.18 19.43,261.47 42.53,197.89 C51.65,172.79 59.00,150.78 59.00,148.54 C59.00,147.82 51.46,146.60 37.76,145.12 C26.07,143.85 15.70,142.37 14.70,141.84 C13.41,141.15 12.97,139.95 13.19,137.69 C13.45,135.00 14.94,133.41 23.00,127.22 C40.37,113.87 65.17,97.80 67.67,98.28 C69.63,98.65 70.37,97.82 72.98,92.22 C79.41,78.49 97.70,55.37 119.50,33.45 C133.69,19.18 143.09,11.66 152.77,6.83 C162.88,1.79 165.08,1.93 194.50,9.42 C224.89,17.17 233.31,19.98 238.22,24.03 C242.05,27.18 246.00,34.19 246.00,37.82 C246.00,40.50 246.28,40.50 254.16,37.93 C257.65,36.80 264.61,35.61 269.64,35.30 L 278.78 34.74 L 293.09 48.12 C318.12,71.54 326.00,79.64 326.00,81.94 C326.00,84.56 321.77,89.00 319.27,89.00 C318.27,89.00 313.86,85.37 309.48,80.93 C301.46,72.81 296.75,69.42 295.00,70.50 C294.48,70.82 293.52,72.87 292.87,75.05 C290.07,84.38 282.47,89.57 264.47,94.42 C254.47,97.11 254.42,97.14 252.03,101.65 C248.87,107.61 243.98,111.43 229.50,119.24 C222.90,122.80 211.57,129.33 204.32,133.74 C197.07,138.15 188.97,142.54 186.32,143.48 C180.26,145.64 163.87,146.62 158.53,145.14 C156.35,144.53 154.24,144.37 153.84,144.77 C153.45,145.17 152.15,150.23 150.96,156.00 C149.32,163.95 148.79,170.02 148.79,181.00 C148.79,197.82 150.62,208.25 157.04,228.00 C162.29,244.16 165.83,258.12 166.64,265.85 C167.00,269.23 167.58,272.00 167.93,272.00 C168.29,272.00 170.59,269.92 173.04,267.37 C179.40,260.78 191.25,252.13 200.62,247.26 C208.69,243.06 225.18,237.01 228.65,236.98 C229.67,236.98 231.09,236.59 231.81,236.14 C232.64,235.61 236.24,218.17 241.51,189.10 C247.65,155.32 250.45,142.01 251.93,139.61 C254.85,134.89 260.58,132.56 267.33,133.35 L 272.70 133.98 L 274.53 129.93 C277.19,124.03 281.22,121.00 286.42,121.00 C291.78,121.00 294.28,123.41 293.82,128.14 C293.58,130.62 292.68,131.99 290.29,133.49 C288.52,134.59 287.06,135.79 287.04,136.14 C287.00,136.79 289.84,137.40 298.00,138.51 L 302.50 139.13 L 304.87 134.59 C308.04,128.55 314.49,125.13 319.12,127.05 C324.43,129.25 325.19,135.13 320.62,138.72 C316.79,141.74 317.27,142.35 324.50,143.58 C332.14,144.88 331.94,144.97 335.15,139.16 C337.10,135.65 340.44,133.26 344.57,132.44 C348.65,131.62 353.00,135.04 353.00,139.07 C353.00,142.20 349.98,146.00 347.50,146.00 C346.67,146.00 346.00,146.39 346.00,146.87 C346.00,147.35 348.36,148.05 351.25,148.43 C354.14,148.80 357.44,149.34 358.60,149.63 C360.22,150.02 360.98,149.46 361.92,147.19 C365.13,139.44 375.31,135.31 379.88,139.88 C382.89,142.89 382.56,146.35 379.00,149.35 C377.35,150.73 376.00,152.05 376.00,152.28 C376.00,152.50 379.26,153.25 383.25,153.95 C398.78,156.69 405.00,162.12 405.00,172.98 C405.00,175.20 401.64,195.39 397.54,217.83 C388.92,265.03 383.70,295.77 377.99,333.00 C375.75,347.58 372.79,366.85 371.41,375.83 C366.98,404.53 362.20,416.89 351.82,426.50 C335.10,441.99 307.95,450.81 262.61,455.50 C247.82,457.03 213.08,458.15 203.50,457.40 ZM 102.14 425.57 C106.34,424.82 115.47,422.27 122.42,419.91 L 135.06 415.61 L 149.28 416.90 C157.10,417.61 167.77,418.58 173.00,419.06 C200.13,421.54 224.29,419.05 248.44,411.29 C263.30,406.52 272.67,402.10 283.97,394.53 C292.68,388.71 307.02,375.69 305.93,374.60 C305.69,374.35 302.83,375.04 299.59,376.14 C281.39,382.28 255.79,384.48 236.22,381.59 C216.83,378.72 198.31,371.43 188.50,362.79 C180.76,355.98 181.95,355.73 199.50,360.49 C212.79,364.10 234.54,365.00 249.50,362.57 C283.23,357.08 312.01,339.94 322.18,319.28 C324.97,313.62 325.22,312.34 324.78,306.12 C324.39,300.75 323.38,297.37 320.19,290.78 C311.64,273.11 295.08,260.32 272.30,253.78 C265.78,251.91 262.13,251.55 250.00,251.60 C232.47,251.66 224.49,253.52 209.50,261.03 C187.71,271.94 173.17,288.58 165.59,311.29 C158.59,332.24 147.43,346.24 132.00,353.42 C126.31,356.07 120.00,356.84 120.00,354.88 C120.00,354.27 122.46,351.11 125.47,347.86 C132.66,340.10 136.25,334.77 141.03,324.76 C147.10,312.07 149.16,302.88 149.71,286.00 C150.30,267.93 148.56,258.54 140.13,234.35 C136.89,225.08 133.53,214.04 132.66,209.82 C130.51,199.39 129.71,183.63 130.72,171.25 C131.18,165.61 131.23,161.00 130.83,161.00 C129.08,161.00 124.67,170.61 120.36,183.78 C117.65,192.09 115.24,197.91 114.60,197.69 C113.86,197.44 113.54,192.57 113.62,182.91 C113.74,166.98 115.14,159.26 119.92,148.02 C122.25,142.54 122.59,140.91 121.58,140.07 C118.62,137.61 114.26,137.90 101.98,141.36 C95.12,143.30 85.87,145.84 81.43,147.00 L 73.37 149.12 L 71.10 156.81 C69.86,161.04 64.10,177.55 58.31,193.50 C35.10,257.40 31.30,271.66 28.86,304.19 C27.62,320.55 28.48,335.81 32.05,361.02 C33.65,372.33 33.95,377.93 33.42,386.61 C32.87,395.66 33.06,398.65 34.43,402.78 C38.45,414.90 51.33,423.20 70.48,426.01 C78.77,427.23 94.01,427.02 102.14,425.57 ZM 362.53 300.95 C364.45,289.70 369.42,262.73 373.58,241.00 C387.28,169.32 387.18,169.92 386.04,168.55 C385.17,167.51 375.89,165.00 372.88,165.00 C372.45,165.00 372.82,166.26 373.70,167.81 C375.99,171.80 374.78,175.66 370.61,177.65 C364.24,180.69 359.04,175.87 359.01,166.89 L 359.00 162.27 L 354.75 161.68 C352.41,161.35 348.92,160.78 347.00,160.41 C344.11,159.85 343.72,159.97 344.75,161.07 C346.56,163.00 346.28,168.43 344.24,170.95 C342.21,173.46 336.92,174.01 334.47,171.97 C331.83,169.79 330.00,165.35 330.00,161.14 L 330.00 157.18 L 322.93 155.99 C319.05,155.33 315.66,155.01 315.40,155.27 C315.14,155.53 315.45,156.90 316.10,158.33 C317.72,161.86 315.73,166.55 312.09,167.82 C305.96,169.96 300.64,164.44 300.54,155.85 L 300.50 152.12 L 294.42 151.06 C286.20,149.63 284.26,149.66 285.80,151.20 C287.76,153.16 287.26,159.45 284.99,161.51 C282.59,163.69 277.78,163.89 275.40,161.92 C273.03,159.95 271.00,154.73 271.00,150.61 C271.00,147.56 270.64,147.08 267.90,146.48 C266.20,146.10 264.40,146.20 263.90,146.70 C263.40,147.20 261.44,156.36 259.53,167.05 C257.62,177.75 254.10,197.23 251.70,210.35 C248.81,226.11 247.70,234.30 248.42,234.51 C249.01,234.69 253.19,235.11 257.70,235.44 C274.76,236.69 293.77,243.35 308.21,253.13 C325.48,264.84 341.60,287.19 351.73,313.47 C353.64,318.44 355.44,322.88 355.72,323.35 C357.36,326.03 359.38,319.38 362.53,300.95 ZM 71.48 133.12 C71.98,129.50 71.62,126.50 70.08,121.51 C68.93,117.82 68.00,113.72 68.00,112.42 C68.00,110.27 66.90,110.83 56.14,118.52 L 44.28 127.00 L 45.29 131.42 L 46.30 135.85 L 54.90 136.50 C59.63,136.85 63.95,137.30 64.50,137.49 C65.05,137.69 66.70,137.88 68.16,137.92 C70.59,137.99 70.87,137.59 71.48,133.12 ZM 115.22 112.41 C129.67,108.28 142.10,104.31 142.83,103.59 C143.56,102.86 144.40,100.41 144.71,98.14 C145.21,94.42 145.05,94.00 143.16,94.00 C142.00,94.00 131.03,96.70 118.78,100.00 C106.52,103.31 92.74,107.01 88.15,108.23 L 79.79 110.46 L 80.39 114.81 C80.72,117.21 81.26,119.62 81.61,120.17 C82.49,121.60 85.59,120.88 115.22,112.41 ZM 170.96 115.38 C175.15,111.85 176.85,108.26 178.56,99.34 C180.56,88.92 180.38,79.44 178.11,74.44 C175.87,69.50 169.47,63.82 161.69,59.86 C156.94,57.45 155.93,56.50 156.19,54.70 C156.45,52.85 157.05,52.54 160.00,52.78 C165.49,53.22 174.97,58.19 181.20,63.89 C190.72,72.61 192.33,79.65 189.36,99.75 C188.80,103.60 188.94,104.00 190.83,104.00 C191.99,104.00 194.55,102.58 196.53,100.84 C205.99,92.53 212.10,68.68 207.25,59.02 C205.08,54.70 198.76,49.90 184.91,42.04 C179.02,38.69 173.96,35.33 173.66,34.55 C173.36,33.78 173.80,32.58 174.64,31.89 C176.80,30.09 183.14,31.93 195.56,37.96 C207.22,43.63 215.02,50.12 217.51,56.24 C219.65,61.51 219.70,73.95 217.61,82.49 C216.81,85.79 216.35,88.69 216.60,88.93 C216.84,89.18 219.26,87.20 221.96,84.54 C230.95,75.68 235.80,61.49 234.77,47.06 C233.82,33.76 231.59,32.16 203.84,24.87 C163.04,14.15 165.93,14.39 155.02,20.75 C146.77,25.56 123.15,48.41 109.27,65.00 C99.03,77.24 87.32,93.65 88.20,94.53 C89.11,95.45 134.98,82.48 134.99,81.31 C135.01,79.07 136.63,79.11 143.36,81.56 C147.06,82.90 151.33,84.00 152.85,84.00 C154.37,84.00 156.38,84.56 157.31,85.25 C158.88,86.40 158.89,87.04 157.52,93.50 C156.71,97.35 155.74,103.98 155.38,108.23 C154.74,115.73 154.79,115.99 157.11,116.92 C161.86,118.82 167.63,118.18 170.96,115.38 ZM 244.24 88.51 C247.68,87.14 254.08,85.11 258.46,84.00 C262.84,82.88 266.71,81.64 267.05,81.24 C267.39,80.83 267.47,78.36 267.23,75.75 C266.81,71.10 266.72,71.00 263.41,71.00 C261.55,71.00 255.75,72.37 250.53,74.04 C242.82,76.51 240.59,77.68 238.66,80.29 C235.72,84.24 234.73,87.97 236.16,89.70 C237.53,91.34 236.90,91.43 244.24,88.51 ZM 252.00 61.50 C255.02,60.69 258.71,60.02 260.19,60.01 C264.16,59.99 264.42,58.50 261.11,54.80 C258.52,51.90 257.56,51.50 253.17,51.50 C250.42,51.50 247.97,51.72 247.72,52.00 C247.28,52.50 245.92,63.01 246.30,62.99 C246.41,62.98 248.98,62.31 252.00,61.50 ZM 348.50 234.87 C345.75,234.36 326.68,231.00 306.12,227.40 C285.57,223.79 268.10,220.59 267.30,220.28 C264.88,219.36 263.82,215.15 265.25,212.16 C266.16,210.25 267.41,209.41 269.67,209.19 C273.71,208.80 359.05,223.79 360.73,225.19 C362.63,226.77 362.28,232.44 360.17,234.35 C358.17,236.15 356.08,236.25 348.50,234.87 ZM 351.50 206.86 C348.75,206.35 330.52,203.06 311.00,199.54 C291.48,196.03 274.28,192.68 272.78,192.11 C266.91,189.87 268.83,181.00 275.17,181.00 C279.47,181.00 362.89,195.87 365.04,197.02 C368.39,198.81 368.99,203.79 366.17,206.35 C364.16,208.17 359.51,208.33 351.50,206.86 Z" fill="rgba(255,255,255,1)"/>
</g>
</svg>
